<svg width="1400" height="463" viewBox="0 0 1400 463" fill="none" xmlns="http://www.w3.org/2000/svg">
<rect y="13" width="1400" height="450" rx="30" fill="#2F2D53"/>
<g opacity="0.06" clip-path="url(#clip0_276_4760)">
<path d="M108.126 406.174C107.399 404.601 105.876 403.529 103.845 403.16C101.954 402.824 99.8013 403.147 97.7979 404.054C95.7958 404.977 94.1466 406.392 93.1616 408.044C92.1118 409.823 91.9234 411.671 92.6431 413.252C92.9503 413.914 93.3849 414.475 93.9401 414.942C94.7239 415.6 95.7325 416.058 96.9321 416.272C98.8235 416.608 100.969 416.294 102.971 415.371C104.975 414.464 106.624 413.049 107.601 411.39C108.665 409.61 108.846 407.754 108.126 406.174ZM93.0015 397.444C93.2444 397.801 93.5448 398.123 93.8714 398.398C94.941 399.297 96.4057 399.776 98.0993 399.751C100.173 399.738 102.384 398.964 104.317 397.593C106.25 396.222 107.705 394.392 108.414 392.438C109.173 390.359 109.001 388.375 107.923 386.856C105.803 383.875 100.724 383.799 96.6005 386.715C92.4207 389.681 90.8378 394.398 93.0015 397.444ZM59.3247 407.565C60.5709 410.243 62.9648 412.186 65.8884 412.902C68.9281 413.646 71.3774 415.705 72.6242 418.565C73.2476 419.995 74.1791 421.224 75.3303 422.192C76.3917 423.084 77.6453 423.748 79.0176 424.121C80.4598 424.511 81.9748 424.547 83.4338 424.225C84.8927 423.904 86.2525 423.235 87.3976 422.276C89.032 420.928 90.1668 419.071 90.6205 417.001C91.0742 414.932 90.8206 412.77 89.9002 410.862C89.0718 409.162 88.9384 407.183 89.5256 405.307C90.4341 402.42 90.676 398.304 86.7897 395.036L86.708 394.968C83.8053 392.569 80.1984 392.268 76.2749 394.084C74.4123 394.956 72.4066 395.137 70.6267 394.602C66.4066 393.34 61.9136 395.137 59.6953 398.985C58.1747 401.623 58.0433 404.829 59.3247 407.565ZM72.7257 390.863C74.1843 389.608 75.3027 387.748 75.8597 385.61C77.0653 380.994 75.3755 376.688 71.9978 375.799C68.6214 374.926 65.0277 377.841 63.8222 382.457C63.2652 384.595 63.3159 386.756 63.9799 388.568C64.3888 389.706 65.0212 390.628 65.7968 391.28C66.352 391.747 66.987 392.086 67.6841 392.268C69.3648 392.705 71.1615 392.209 72.7257 390.863ZM82.1458 388.526C82.4642 388.794 82.8101 389.029 83.204 389.207C86.5131 390.79 90.9746 388.368 93.1469 383.811C95.3191 379.255 94.3807 374.272 91.0634 372.681C88.4575 371.438 85.1348 372.672 82.7872 375.464C82.142 376.232 81.5741 377.106 81.1137 378.084C79.191 382.112 79.7046 386.474 82.1458 388.526Z" fill="#FF5B2E"/>
</g>
<g opacity="0.06" clip-path="url(#clip1_276_4760)">
<path d="M1206.11 375.332C1205.93 373.61 1204.83 372.105 1203.03 371.103C1201.35 370.177 1199.2 369.791 1197.02 370.006C1194.82 370.237 1192.81 371.046 1191.34 372.294C1189.78 373.642 1189 375.332 1189.18 377.06C1189.26 377.785 1189.49 378.456 1189.86 379.076C1190.39 379.952 1191.2 380.71 1192.27 381.298C1193.95 382.224 1196.08 382.616 1198.28 382.386C1200.47 382.17 1202.48 381.36 1203.94 380.103C1205.52 378.759 1206.29 377.06 1206.11 375.332ZM1194.6 362.205C1194.71 362.622 1194.89 363.023 1195.11 363.388C1195.84 364.583 1197.07 365.508 1198.68 366.028C1200.65 366.682 1202.99 366.66 1205.27 365.982C1207.54 365.305 1209.5 364.041 1210.8 362.418C1212.19 360.693 1212.66 358.759 1212.13 356.974C1211.08 353.47 1206.3 351.766 1201.45 353.202C1196.54 354.667 1193.53 358.626 1194.6 362.205ZM1159.45 360.967C1159.77 363.903 1161.42 366.513 1163.95 368.13C1166.59 369.811 1168.25 372.549 1168.51 375.657C1168.64 377.212 1169.13 378.675 1169.91 379.962C1170.63 381.148 1171.6 382.179 1172.78 382.974C1174.02 383.806 1175.45 384.327 1176.93 384.491C1178.42 384.656 1179.92 384.46 1181.31 383.919C1183.29 383.168 1184.96 381.774 1186.06 379.96C1187.15 378.146 1187.61 376.018 1187.35 373.915C1187.11 372.039 1187.62 370.122 1188.78 368.535C1190.57 366.092 1192.12 362.272 1189.49 357.929L1189.43 357.838C1187.46 354.633 1184.14 353.189 1179.84 353.648C1177.79 353.876 1175.84 353.403 1174.32 352.324C1170.73 349.772 1165.9 350.03 1162.56 352.962C1160.28 354.97 1159.12 357.964 1159.45 360.967ZM1177.51 349.457C1179.3 348.738 1180.95 347.336 1182.17 345.49C1184.79 341.506 1184.58 336.886 1181.66 334.959C1178.75 333.047 1174.41 334.652 1171.78 338.637C1170.57 340.482 1169.92 342.544 1169.97 344.474C1169.99 345.683 1170.29 346.759 1170.82 347.626C1171.19 348.247 1171.68 348.771 1172.29 349.168C1173.74 350.122 1175.6 350.23 1177.51 349.457ZM1187.18 350.272C1187.4 350.627 1187.65 350.961 1187.97 351.256C1190.59 353.819 1195.59 352.959 1199.12 349.343C1202.64 345.726 1203.35 340.705 1200.72 338.133C1198.65 336.118 1195.11 336.219 1191.99 338.109C1191.13 338.628 1190.31 339.274 1189.56 340.052C1186.45 343.248 1185.53 347.544 1187.18 350.272Z" fill="#FF5B2E"/>
</g>
<g opacity="0.06" clip-path="url(#clip2_276_4760)">
<path d="M735.114 375.332C734.931 373.61 733.833 372.105 732.029 371.103C730.346 370.177 728.204 369.791 726.015 370.006C723.823 370.237 721.806 371.046 720.343 372.294C718.777 373.642 718.004 375.332 718.178 377.06C718.256 377.785 718.487 378.456 718.863 379.076C719.394 379.952 720.202 380.71 721.269 381.298C722.952 382.224 725.085 382.616 727.277 382.386C729.466 382.17 731.482 381.36 732.94 380.103C734.521 378.759 735.288 377.06 735.114 375.332ZM723.598 362.205C723.713 362.622 723.894 363.023 724.115 363.388C724.838 364.583 726.072 365.508 727.684 366.028C729.651 366.682 731.994 366.66 734.265 365.982C736.536 365.305 738.501 364.041 739.801 362.418C741.188 360.693 741.663 358.759 741.13 356.974C740.08 353.47 735.295 351.766 730.453 353.202C725.542 354.667 722.527 358.626 723.598 362.205ZM688.455 360.967C688.774 363.903 690.417 366.513 692.955 368.13C695.594 369.811 697.252 372.549 697.514 375.657C697.644 377.212 698.132 378.675 698.911 379.962C699.629 381.148 700.603 382.179 701.782 382.974C703.023 383.806 704.446 384.327 705.931 384.491C707.416 384.656 708.918 384.46 710.311 383.919C712.292 383.168 713.963 381.774 715.058 379.96C716.152 378.146 716.607 376.018 716.349 373.915C716.11 372.039 716.62 370.122 717.779 368.535C719.567 366.092 721.119 362.272 718.489 357.929L718.434 357.838C716.456 354.633 713.137 353.189 708.838 353.648C706.794 353.876 704.836 353.403 703.323 352.324C699.732 349.772 694.9 350.03 691.563 352.962C689.275 354.97 688.12 357.964 688.455 360.967ZM706.512 349.457C708.296 348.738 709.953 347.336 711.168 345.49C713.793 341.506 713.576 336.886 710.663 334.959C707.747 333.047 703.407 334.652 700.782 338.637C699.568 340.482 698.921 342.544 698.967 344.474C698.989 345.683 699.292 346.759 699.816 347.626C700.192 348.247 700.685 348.771 701.286 349.168C702.737 350.122 704.598 350.23 706.512 349.457ZM716.183 350.272C716.399 350.627 716.651 350.961 716.967 351.256C719.591 353.819 724.595 352.959 728.116 349.343C731.637 345.726 732.35 340.705 729.72 338.133C727.652 336.118 724.109 336.219 720.988 338.109C720.131 338.628 719.312 339.274 718.562 340.052C715.447 343.248 714.531 347.544 716.183 350.272Z" fill="#FF5B2E"/>
</g>
<g opacity="0.03">
<path d="M828.745 327.362C829.341 326.127 829.23 324.657 828.435 323.23C827.689 321.904 826.41 320.751 824.847 319.983C823.276 319.223 821.582 318.926 820.077 319.155C818.462 319.408 817.237 320.222 816.633 321.457C816.382 321.978 816.258 322.525 816.252 323.099C816.243 323.91 816.471 324.757 816.943 325.598C817.689 326.923 818.96 328.076 820.531 328.836C822.093 329.604 823.787 329.901 825.293 329.664C826.916 329.42 828.141 328.597 828.745 327.362ZM826.476 313.726C826.38 314.055 826.334 314.4 826.33 314.738C826.319 315.844 826.762 316.98 827.63 318.003C828.68 319.264 830.266 320.226 832.076 320.719C833.886 321.211 835.735 321.18 837.287 320.631C838.939 320.049 840.066 318.946 840.452 317.524C841.208 314.728 838.701 311.586 834.845 310.531C830.93 309.468 827.25 310.872 826.476 313.726ZM803.354 298.229C802.344 300.338 802.36 302.778 803.392 304.926C804.466 307.158 804.439 309.691 803.318 311.891C802.757 312.991 802.474 314.179 802.462 315.369C802.45 316.467 802.675 317.567 803.136 318.593C803.624 319.671 804.364 320.615 805.294 321.345C806.224 322.076 807.316 322.571 808.479 322.788C810.124 323.109 811.83 322.869 813.324 322.106C814.817 321.343 816.011 320.1 816.714 318.578C817.337 317.217 818.48 316.14 819.921 315.556C822.143 314.659 824.781 312.737 824.824 308.718L824.825 308.634C824.832 305.653 823.202 303.297 820.119 301.812C818.649 301.112 817.53 299.977 816.962 298.62C815.611 295.405 812.253 293.562 808.785 294.142C806.408 294.538 804.382 296.07 803.354 298.229ZM820.303 298.022C821.803 298.283 823.503 298.031 825.09 297.297C828.518 295.712 830.3 292.514 829.145 290.003C827.981 287.499 824.392 286.768 820.964 288.353C819.377 289.087 818.082 290.205 817.308 291.522C816.818 292.345 816.572 293.195 816.563 293.997C816.557 294.571 816.67 295.13 816.909 295.647C817.487 296.895 818.693 297.743 820.303 298.022ZM826.469 302.606C826.465 302.935 826.495 303.265 826.585 303.595C827.281 306.414 831.005 307.923 834.883 306.96C838.76 305.997 841.335 302.917 840.639 300.089C840.089 297.871 837.663 296.46 834.776 296.429C833.982 296.421 833.162 296.514 832.333 296.724C828.904 297.574 826.496 300.081 826.469 302.606Z" fill="#FF5B2E"/>
</g>
<g opacity="0.03">
<path d="M357.745 327.362C358.341 326.127 358.23 324.657 357.435 323.23C356.689 321.904 355.41 320.751 353.847 319.983C352.276 319.223 350.582 318.926 349.077 319.155C347.462 319.408 346.237 320.222 345.633 321.457C345.382 321.978 345.258 322.525 345.252 323.099C345.243 323.91 345.471 324.757 345.943 325.598C346.689 326.923 347.96 328.076 349.531 328.836C351.093 329.604 352.787 329.901 354.293 329.664C355.916 329.42 357.141 328.597 357.745 327.362ZM355.476 313.726C355.38 314.055 355.334 314.4 355.33 314.738C355.319 315.844 355.762 316.98 356.63 318.003C357.68 319.264 359.266 320.226 361.076 320.719C362.886 321.211 364.735 321.18 366.287 320.631C367.939 320.049 369.066 318.946 369.452 317.524C370.208 314.728 367.701 311.586 363.845 310.531C359.93 309.468 356.25 310.872 355.476 313.726ZM332.354 298.229C331.344 300.338 331.36 302.778 332.392 304.926C333.466 307.158 333.439 309.691 332.318 311.891C331.757 312.991 331.474 314.179 331.462 315.369C331.45 316.467 331.675 317.567 332.136 318.593C332.624 319.671 333.364 320.615 334.294 321.345C335.224 322.076 336.316 322.571 337.479 322.788C339.124 323.109 340.83 322.869 342.324 322.106C343.817 321.343 345.011 320.1 345.714 318.578C346.337 317.217 347.48 316.14 348.921 315.556C351.143 314.659 353.781 312.737 353.824 308.718L353.825 308.634C353.832 305.653 352.202 303.297 349.119 301.812C347.649 301.112 346.53 299.977 345.962 298.62C344.611 295.405 341.253 293.562 337.785 294.142C335.408 294.538 333.382 296.07 332.354 298.229ZM349.303 298.022C350.803 298.283 352.503 298.031 354.09 297.297C357.518 295.712 359.3 292.514 358.145 290.003C356.981 287.499 353.392 286.768 349.964 288.353C348.377 289.087 347.082 290.205 346.308 291.522C345.818 292.345 345.572 293.195 345.563 293.997C345.557 294.571 345.67 295.13 345.909 295.647C346.487 296.895 347.693 297.743 349.303 298.022ZM355.469 302.606C355.465 302.935 355.495 303.265 355.585 303.595C356.281 306.414 360.005 307.923 363.883 306.96C367.76 305.997 370.335 302.917 369.639 300.089C369.089 297.871 366.663 296.46 363.776 296.429C362.982 296.421 362.162 296.514 361.333 296.724C357.904 297.574 355.496 300.081 355.469 302.606Z" fill="#FF5B2E"/>
</g>
<g opacity="0.03">
<path d="M702.745 156.362C703.341 155.127 703.23 153.657 702.435 152.23C701.689 150.904 700.41 149.751 698.847 148.983C697.276 148.223 695.582 147.926 694.077 148.155C692.462 148.408 691.237 149.222 690.633 150.457C690.382 150.978 690.258 151.525 690.252 152.099C690.243 152.91 690.471 153.757 690.943 154.598C691.689 155.923 692.96 157.076 694.531 157.836C696.093 158.604 697.787 158.901 699.293 158.664C700.916 158.42 702.141 157.597 702.745 156.362ZM700.476 142.726C700.38 143.055 700.334 143.4 700.33 143.738C700.319 144.844 700.762 145.98 701.63 147.003C702.68 148.264 704.266 149.226 706.076 149.719C707.886 150.211 709.735 150.18 711.287 149.631C712.939 149.049 714.066 147.946 714.452 146.524C715.208 143.728 712.701 140.586 708.845 139.531C704.93 138.468 701.25 139.872 700.476 142.726ZM677.354 127.229C676.344 129.338 676.36 131.778 677.392 133.926C678.466 136.158 678.439 138.691 677.318 140.891C676.757 141.991 676.474 143.179 676.462 144.369C676.45 145.467 676.675 146.567 677.136 147.593C677.624 148.671 678.364 149.615 679.294 150.345C680.224 151.076 681.316 151.571 682.479 151.788C684.124 152.109 685.83 151.869 687.324 151.106C688.817 150.343 690.011 149.1 690.714 147.578C691.337 146.217 692.48 145.14 693.921 144.556C696.143 143.659 698.781 141.737 698.824 137.718L698.825 137.634C698.832 134.653 697.202 132.297 694.119 130.812C692.649 130.112 691.53 128.977 690.962 127.62C689.611 124.405 686.253 122.562 682.785 123.142C680.408 123.538 678.382 125.07 677.354 127.229ZM694.303 127.022C695.803 127.283 697.503 127.031 699.09 126.297C702.518 124.712 704.3 121.514 703.145 119.003C701.981 116.499 698.392 115.768 694.964 117.353C693.377 118.087 692.082 119.205 691.308 120.522C690.818 121.345 690.572 122.195 690.563 122.997C690.557 123.571 690.67 124.13 690.909 124.647C691.487 125.895 692.693 126.743 694.303 127.022ZM700.469 131.606C700.465 131.935 700.495 132.265 700.585 132.595C701.281 135.414 705.005 136.923 708.883 135.96C712.76 134.997 715.335 131.917 714.639 129.089C714.089 126.871 711.663 125.46 708.776 125.429C707.982 125.421 707.162 125.514 706.333 125.724C702.904 126.574 700.496 129.081 700.469 131.606Z" fill="#FFCC37"/>
</g>
<g opacity="0.06" clip-path="url(#clip3_276_4760)">
<path d="M1133.11 59.3324C1132.93 57.6099 1131.83 56.1052 1130.03 55.1028C1128.35 54.1768 1126.2 53.7905 1124.02 54.0062C1121.82 54.2366 1119.81 55.0462 1118.34 56.2943C1116.78 57.6417 1116 59.3315 1116.18 61.0595C1116.26 61.7854 1116.49 62.4559 1116.86 63.0763C1117.39 63.9522 1118.2 64.7098 1119.27 65.2981C1120.95 66.2242 1123.08 66.616 1125.28 66.3856C1127.47 66.1699 1129.48 65.3603 1130.94 64.1031C1132.52 62.7593 1133.29 61.0604 1133.11 59.3324ZM1121.6 46.2049C1121.71 46.6216 1121.89 47.0233 1122.11 47.3882C1122.84 48.5835 1124.07 49.5077 1125.68 50.0279C1127.65 50.682 1129.99 50.6595 1132.27 49.9825C1134.54 49.3054 1136.5 48.0406 1137.8 46.4181C1139.19 44.6928 1139.66 42.759 1139.13 40.974C1138.08 37.4696 1133.3 35.7661 1128.45 37.202C1123.54 38.6674 1120.53 42.6257 1121.6 46.2049ZM1086.45 44.9668C1086.77 47.9034 1088.42 50.5125 1090.95 52.1302C1093.59 53.8114 1095.25 56.5486 1095.51 59.6574C1095.64 61.2118 1096.13 62.6751 1096.91 63.9616C1097.63 65.1477 1098.6 66.1791 1099.78 66.9736C1101.02 67.806 1102.45 68.3267 1103.93 68.4913C1105.42 68.6558 1106.92 68.4595 1108.31 67.919C1110.29 67.1678 1111.96 65.7737 1113.06 63.96C1114.15 62.1463 1114.61 60.0177 1114.35 57.9151C1114.11 56.0392 1114.62 54.1218 1115.78 52.5346C1117.57 50.0924 1119.12 46.2719 1116.49 41.9289L1116.43 41.8376C1114.46 38.6335 1111.14 37.1892 1106.84 37.6478C1104.79 37.8757 1102.84 37.4027 1101.32 36.3241C1097.73 33.7723 1092.9 34.0301 1089.56 36.9616C1087.28 38.9705 1086.12 41.9644 1086.45 44.9668ZM1104.51 33.4572C1106.3 32.7382 1107.95 31.3356 1109.17 29.4903C1111.79 25.5062 1111.58 20.8862 1108.66 18.9591C1105.75 17.0466 1101.41 18.6524 1098.78 22.6365C1097.57 24.4818 1096.92 26.5443 1096.97 28.4741C1096.99 29.6832 1097.29 30.7594 1097.82 31.6262C1098.19 32.2466 1098.68 32.7714 1099.29 33.1677C1100.74 34.1222 1102.6 34.2297 1104.51 33.4572ZM1114.18 34.2716C1114.4 34.6275 1114.65 34.9612 1114.97 35.2563C1117.59 37.8193 1122.59 36.959 1126.12 33.3426C1129.64 29.7261 1130.35 24.7053 1127.72 22.1331C1125.65 20.1184 1122.11 20.219 1118.99 22.1087C1118.13 22.6281 1117.31 23.2736 1116.56 24.0523C1113.45 27.2482 1112.53 31.5436 1114.18 34.2716Z" fill="#FF5B2E"/>
</g>
<g opacity="0.06">
<path d="M910.499 68.3619C911.095 67.1271 910.984 65.6567 910.189 64.2296C909.443 62.9044 908.164 61.7508 906.601 60.9826C905.03 60.2227 903.336 59.926 901.831 60.1547C900.215 60.4076 898.991 61.222 898.387 62.4568C898.136 62.9776 898.012 63.5251 898.006 64.0992C897.997 64.9098 898.225 65.7566 898.697 66.5975C899.443 67.9228 900.714 69.0763 902.285 69.8361C903.847 70.6043 905.541 70.9011 907.046 70.6639C908.67 70.4195 909.895 69.5967 910.499 68.3619ZM908.23 54.7263C908.134 55.0546 908.088 55.4003 908.084 55.738C908.073 56.844 908.516 57.9802 909.384 59.0028C910.434 60.2637 912.02 61.2264 913.83 61.7186C915.64 62.2108 917.489 62.1799 919.04 61.6308C920.693 61.049 921.82 59.9465 922.206 58.5236C922.962 55.7284 920.454 52.5858 916.598 51.5313C912.684 50.4677 909.004 51.8722 908.23 54.7263ZM885.108 39.2294C884.098 41.338 884.114 43.7784 885.146 45.9257C886.22 48.1579 886.193 50.6908 885.072 52.8911C884.511 53.9912 884.228 55.1787 884.216 56.3692C884.204 57.4667 884.428 58.5668 884.89 59.5935C885.377 60.671 886.117 61.615 887.048 62.3453C887.978 63.0756 889.07 63.5705 890.233 63.7881C891.878 64.1093 893.584 63.869 895.078 63.1058C896.571 62.3426 897.765 61.1005 898.468 59.5783C899.091 58.2171 900.234 57.1401 901.675 56.556C903.897 55.6594 906.535 53.7372 906.578 49.7184L906.579 49.634C906.586 46.6534 904.956 44.297 901.873 42.8117C900.403 42.112 899.284 40.977 898.715 39.6199C897.365 36.4053 894.007 34.5624 890.539 35.1417C888.162 35.5384 886.136 37.0704 885.108 39.2294ZM902.057 39.0224C903.557 39.2833 905.257 39.0313 906.844 38.2968C910.272 36.7123 912.054 33.5143 910.899 31.0026C909.735 28.4992 906.146 27.7684 902.718 29.3529C901.131 30.0875 899.836 31.2051 899.062 32.5224C898.571 33.3447 898.326 34.1949 898.317 34.9969C898.311 35.5711 898.423 36.1295 898.663 36.6472C899.241 37.8946 900.447 38.7434 902.057 39.0224ZM908.223 43.6058C908.219 43.9351 908.249 44.2647 908.339 44.595C909.035 47.4142 912.759 48.9233 916.637 47.96C920.514 46.9966 923.089 43.9169 922.393 41.0892C921.842 38.8711 919.417 37.4604 916.53 37.4294C915.736 37.421 914.916 37.5135 914.086 37.7242C910.658 38.5741 908.25 41.0814 908.223 43.6058Z" fill="#FF5B2E"/>
</g>
<g opacity="0.04" clip-path="url(#clip4_276_4760)">
<path d="M252.395 249.338C251.07 248.221 249.236 247.895 247.24 248.42C245.385 248.917 243.571 250.121 242.141 251.791C240.718 253.475 239.823 255.455 239.63 257.369C239.433 259.425 240.045 261.179 241.366 262.306C241.925 262.776 242.556 263.1 243.257 263.288C244.246 263.553 245.353 263.54 246.531 263.226C248.386 262.73 250.197 261.536 251.62 259.853C253.05 258.182 253.945 256.202 254.128 254.285C254.338 252.222 253.716 250.465 252.395 249.338ZM234.996 247.834C235.368 248.055 235.776 248.22 236.188 248.33C237.538 248.692 239.068 248.505 240.591 247.765C242.464 246.875 244.14 245.237 245.31 243.177C246.481 241.116 247.024 238.843 246.839 236.773C246.645 234.568 245.65 232.843 244.03 231.923C240.847 230.121 236.214 232.203 233.713 236.591C231.183 241.048 231.746 245.991 234.996 247.834ZM208.775 271.264C211.038 273.163 214.029 273.909 216.981 273.32C220.049 272.706 223.14 273.535 225.481 275.597C226.651 276.629 228.016 277.348 229.468 277.737C230.808 278.096 232.225 278.166 233.626 277.923C235.097 277.665 236.485 277.056 237.67 276.147C238.856 275.238 239.805 274.057 240.436 272.703C241.345 270.789 241.587 268.626 241.122 266.56C240.656 264.493 239.511 262.642 237.869 261.303C236.399 260.114 235.44 258.377 235.178 256.43C234.778 253.429 233.254 249.598 228.349 248.284L228.246 248.256C224.601 247.312 221.206 248.567 218.421 251.874C217.103 253.453 215.363 254.466 213.524 254.736C209.166 255.379 205.857 258.91 205.477 263.335C205.216 266.369 206.455 269.329 208.775 271.264ZM213.841 250.459C214.632 248.705 214.857 246.546 214.456 244.373C213.593 239.681 210.239 236.496 206.803 237.121C203.374 237.76 201.353 241.922 202.216 246.615C202.617 248.787 203.578 250.723 204.947 252.084C205.799 252.942 206.763 253.509 207.741 253.772C208.442 253.959 209.161 253.997 209.869 253.867C211.577 253.552 212.995 252.341 213.841 250.459ZM221.385 244.353C221.787 244.46 222.2 244.527 222.632 244.521C226.301 244.554 229.317 240.47 229.355 235.423C229.393 230.376 226.433 226.258 222.754 226.222C219.867 226.2 217.379 228.725 216.435 232.248C216.175 233.217 216.031 234.249 216.029 235.331C215.992 239.793 218.305 243.527 221.385 244.353Z" fill="#FF5B2E"/>
</g>
<g opacity="0.04" clip-path="url(#clip5_276_4760)">
<path d="M1350.81 279.724C1349.91 278.241 1348.28 277.343 1346.22 277.199C1344.3 277.073 1342.2 277.63 1340.31 278.752C1338.42 279.889 1336.94 281.477 1336.14 283.227C1335.29 285.111 1335.31 286.969 1336.2 288.461C1336.57 289.085 1337.07 289.595 1337.67 289.998C1338.52 290.566 1339.58 290.911 1340.79 290.992C1342.71 291.118 1344.81 290.569 1346.69 289.432C1348.59 288.31 1350.07 286.723 1350.86 284.966C1351.72 283.08 1351.7 281.216 1350.81 279.724ZM1334.82 272.709C1335.1 273.037 1335.43 273.325 1335.78 273.562C1336.95 274.338 1338.46 274.653 1340.14 274.442C1342.19 274.201 1344.31 273.188 1346.08 271.613C1347.85 270.038 1349.09 268.06 1349.58 266.04C1350.11 263.89 1349.72 261.937 1348.48 260.545C1346.05 257.815 1340.99 258.298 1337.21 261.65C1333.38 265.057 1332.33 269.92 1334.82 272.709ZM1302.45 286.47C1303.99 288.995 1306.58 290.663 1309.57 291.053C1312.67 291.459 1315.33 293.236 1316.88 295.942C1317.66 297.294 1318.72 298.414 1319.97 299.249C1321.12 300.019 1322.44 300.541 1323.85 300.762C1325.32 300.99 1326.83 300.859 1328.25 300.38C1329.66 299.9 1330.94 299.086 1331.97 298.006C1333.45 296.487 1334.37 294.516 1334.6 292.41C1334.82 290.303 1334.33 288.182 1333.21 286.387C1332.2 284.788 1331.85 282.836 1332.22 280.907C1332.81 277.937 1332.6 273.819 1328.38 270.999L1328.29 270.939C1325.14 268.874 1321.52 268.971 1317.82 271.207C1316.07 272.28 1314.09 272.68 1312.26 272.344C1307.93 271.553 1303.66 273.833 1301.88 277.902C1300.66 280.69 1300.88 283.892 1302.45 286.47ZM1313.94 268.396C1315.25 266.989 1316.16 265.017 1316.48 262.831C1317.17 258.11 1315.01 254.016 1311.56 253.504C1308.11 253.007 1304.86 256.299 1304.17 261.02C1303.85 263.206 1304.13 265.348 1304.99 267.077C1305.53 268.163 1306.26 269.01 1307.1 269.573C1307.7 269.976 1308.37 270.243 1309.08 270.347C1310.8 270.597 1312.53 269.907 1313.94 268.396ZM1323.05 265.038C1323.39 265.269 1323.76 265.465 1324.17 265.598C1327.63 266.809 1331.8 263.911 1333.46 259.143C1335.12 254.376 1333.64 249.526 1330.17 248.309C1327.44 247.36 1324.27 248.952 1322.25 251.985C1321.69 252.819 1321.22 253.75 1320.87 254.773C1319.4 258.988 1320.39 263.267 1323.05 265.038Z" fill="#FF5B2E"/>
</g>
<g opacity="0.04" clip-path="url(#clip6_276_4760)">
<path d="M1041.96 336.511C1041.98 335.14 1041.25 333.855 1039.93 332.899C1038.69 332.015 1037.04 331.512 1035.3 331.477C1033.56 331.454 1031.9 331.903 1030.63 332.747C1029.27 333.661 1028.51 334.917 1028.48 336.292C1028.48 336.869 1028.6 337.418 1028.84 337.941C1029.17 338.679 1029.74 339.349 1030.52 339.911C1031.76 340.796 1033.4 341.303 1035.14 341.326C1036.88 341.36 1038.54 340.911 1039.81 340.059C1041.17 339.15 1041.93 337.886 1041.96 336.511ZM1034.13 325.12C1034.18 325.458 1034.29 325.791 1034.42 326.098C1034.88 327.105 1035.77 327.946 1036.98 328.505C1038.47 329.203 1040.31 329.403 1042.16 329.083C1044.01 328.762 1045.67 327.951 1046.85 326.797C1048.1 325.57 1048.65 324.094 1048.4 322.641C1047.9 319.789 1044.3 318.004 1040.36 318.682C1036.36 319.376 1033.62 322.207 1034.13 325.12ZM1006.62 320.873C1006.6 323.211 1007.65 325.415 1009.49 326.923C1011.41 328.491 1012.46 330.797 1012.37 333.265C1012.33 334.499 1012.58 335.694 1013.07 336.778C1013.52 337.777 1014.19 338.679 1015.05 339.413C1015.94 340.183 1017.01 340.725 1018.17 340.993C1019.32 341.26 1020.52 341.246 1021.66 340.951C1023.29 340.545 1024.73 339.605 1025.76 338.281C1026.79 336.957 1027.35 335.326 1027.34 333.649C1027.33 332.153 1027.91 330.693 1028.97 329.553C1030.6 327.8 1032.17 324.942 1030.51 321.283L1030.48 321.206C1029.22 318.503 1026.75 317.059 1023.32 317.019C1021.7 317.007 1020.2 316.453 1019.11 315.464C1016.53 313.124 1012.7 312.877 1009.81 314.87C1007.82 316.236 1006.64 318.482 1006.62 320.873ZM1021.89 313.508C1023.36 313.109 1024.79 312.161 1025.92 310.823C1028.35 307.936 1028.61 304.284 1026.5 302.498C1024.39 300.723 1020.82 301.581 1018.39 304.468C1017.26 305.806 1016.56 307.367 1016.42 308.888C1016.32 309.841 1016.46 310.715 1016.79 311.445C1017.03 311.968 1017.37 312.426 1017.81 312.794C1018.86 313.679 1020.31 313.937 1021.89 313.508ZM1029.41 315.049C1029.55 315.349 1029.72 315.635 1029.94 315.896C1031.76 318.155 1035.77 317.945 1038.88 315.43C1041.98 312.915 1043.01 309.035 1041.18 306.768C1039.75 304.992 1036.95 304.741 1034.32 305.936C1033.6 306.264 1032.9 306.695 1032.23 307.237C1029.49 309.459 1028.37 312.751 1029.41 315.049Z" fill="#FFCC37"/>
</g>
<g opacity="0.04" clip-path="url(#clip7_276_4760)">
<path d="M570.959 336.511C570.975 335.14 570.252 333.855 568.927 332.899C567.691 332.015 566.043 331.512 564.302 331.477C562.557 331.454 560.897 331.903 559.63 332.747C558.274 333.661 557.509 334.917 557.485 336.292C557.479 336.869 557.598 337.418 557.836 337.941C558.171 338.679 558.736 339.349 559.52 339.911C560.756 340.796 562.396 341.303 564.141 341.326C565.882 341.36 567.542 340.911 568.806 340.059C570.173 339.15 570.934 337.886 570.959 336.511ZM563.129 325.12C563.18 325.458 563.285 325.791 563.425 326.098C563.882 327.105 564.766 327.946 565.984 328.505C567.47 329.203 569.314 329.403 571.162 329.083C573.01 328.762 574.673 327.951 575.845 326.797C577.096 325.57 577.65 324.094 577.398 322.641C576.899 319.789 573.296 318.004 569.356 318.682C565.359 319.376 562.621 322.207 563.129 325.12ZM535.62 320.873C535.597 323.211 536.645 325.415 538.49 326.923C540.408 328.491 541.456 330.797 541.372 333.265C541.33 334.499 541.577 335.694 542.069 336.778C542.523 337.777 543.193 338.679 544.046 339.413C544.944 340.183 546.014 340.725 547.166 340.993C548.317 341.26 549.517 341.246 550.662 340.951C552.289 340.545 553.733 339.605 554.762 338.281C555.791 336.957 556.347 335.326 556.34 333.649C556.327 332.153 556.906 330.693 557.965 329.553C559.598 327.8 561.174 324.942 559.511 321.283L559.476 321.206C558.22 318.503 555.746 317.059 552.324 317.019C550.696 317.007 549.201 316.453 548.112 315.464C545.527 313.124 541.705 312.877 538.808 314.87C536.823 316.236 535.636 318.482 535.62 320.873ZM550.886 313.508C552.355 313.109 553.789 312.161 554.915 310.823C557.35 307.936 557.61 304.284 555.499 302.498C553.385 300.723 549.824 301.581 547.389 304.468C546.263 305.806 545.563 307.367 545.42 308.888C545.324 309.841 545.461 310.715 545.793 311.445C546.031 311.968 546.369 312.426 546.805 312.794C547.857 313.679 549.309 313.937 550.886 313.508ZM558.412 315.049C558.548 315.349 558.715 315.635 558.936 315.896C560.761 318.155 564.774 317.945 567.878 315.43C570.983 312.915 572.011 309.035 570.183 306.768C568.745 304.992 565.951 304.741 563.322 305.936C562.6 306.264 561.896 306.695 561.233 307.237C558.487 309.459 557.368 312.751 558.412 315.049Z" fill="#FFCC37"/>
</g>
<g opacity="0.05" clip-path="url(#clip8_276_4760)">
<path d="M93.7252 211.522C91.548 211.782 89.6618 213.198 88.4232 215.498C87.2793 217.644 86.8262 220.362 87.1359 223.129C87.4642 225.9 88.5227 228.439 90.1271 230.271C91.8588 232.23 94.0107 233.179 96.1951 232.931C97.1126 232.82 97.9573 232.516 98.7364 232.03C99.8362 231.344 100.782 230.308 101.508 228.947C102.652 226.801 103.113 224.095 102.784 221.324C102.475 218.557 101.416 216.018 99.8003 214.194C98.0729 212.216 95.9095 211.273 93.7252 211.522ZM77.3017 226.32C77.8271 226.167 78.3325 225.931 78.7908 225.645C80.2915 224.709 81.4407 223.133 82.0722 221.084C82.8672 218.582 82.7995 215.617 81.9045 212.753C81.0094 209.89 79.3755 207.424 77.3 205.806C75.093 204.08 72.6373 203.511 70.3867 204.215C65.9686 205.602 63.8925 211.688 65.791 217.792C67.7282 223.984 72.789 227.734 77.3017 226.32ZM76.323 270.824C80.0348 270.37 83.3099 268.247 85.315 265.007C87.3989 261.638 90.8358 259.494 94.7664 259.111C96.7318 258.919 98.5758 258.278 100.191 257.27C101.68 256.341 102.97 255.091 103.956 253.585C104.989 252.001 105.624 250.191 105.807 248.309C105.991 246.426 105.717 244.528 105.009 242.774C104.025 240.279 102.233 238.187 99.9187 236.832C97.6046 235.476 94.9027 234.937 92.2456 235.299C89.8751 235.632 87.4395 235.019 85.4111 233.579C82.2899 231.356 77.4279 229.456 71.9747 232.858L71.8601 232.929C67.8375 235.486 66.0649 239.712 66.7174 245.145C67.0401 247.729 66.4741 250.215 65.1343 252.149C61.9644 256.736 62.3716 262.848 66.1382 267.024C68.7193 269.886 72.5283 271.297 76.323 270.824ZM61.452 248.16C60.5121 245.913 58.7089 243.839 56.3528 242.333C51.2658 239.077 45.4215 239.428 43.031 243.148C40.6591 246.871 42.7644 252.338 47.8514 255.594C50.2075 257.1 52.829 257.884 55.2708 257.793C56.8009 257.745 58.1581 257.344 59.2465 256.665C60.0255 256.179 60.6816 255.547 61.1731 254.779C62.3569 252.927 62.4619 250.569 61.452 248.16ZM62.3209 235.904C62.7677 235.625 63.1859 235.301 63.5541 234.896C66.7544 231.531 65.5817 225.212 60.945 220.816C56.3084 216.419 49.9412 215.601 46.7295 218.973C44.2139 221.625 44.4006 226.108 46.8448 230.026C47.5167 231.103 48.3474 232.128 49.3457 233.065C53.4431 236.954 58.8955 238.041 62.3209 235.904Z" fill="#FFCC37"/>
</g>
<g opacity="0.05" clip-path="url(#clip9_276_4760)">
<path d="M1212.71 192.925C1210.56 192.471 1208.32 193.205 1206.41 194.986C1204.63 196.65 1203.33 199.078 1202.74 201.798C1202.16 204.528 1202.34 207.272 1203.27 209.522C1204.28 211.934 1206.02 213.525 1208.17 213.991C1209.07 214.181 1209.97 214.165 1210.86 213.955C1212.12 213.658 1213.35 212.982 1214.48 211.927C1216.25 210.262 1217.56 207.848 1218.14 205.118C1218.73 202.398 1218.54 199.654 1217.6 197.407C1216.6 194.978 1214.85 193.391 1212.71 192.925ZM1192.4 201.659C1192.95 201.684 1193.5 201.623 1194.03 201.499C1195.75 201.095 1197.34 199.972 1198.6 198.234C1200.16 196.121 1201.04 193.291 1201.12 190.292C1201.19 187.293 1200.43 184.432 1198.99 182.233C1197.45 179.889 1195.31 178.561 1192.95 178.505C1188.32 178.399 1184.4 183.494 1184.24 189.885C1184.08 196.371 1187.67 201.549 1192.4 201.659ZM1177.17 243.488C1180.83 244.252 1184.61 243.294 1187.55 240.87C1190.61 238.349 1194.55 237.423 1198.4 238.324C1200.32 238.774 1202.27 238.759 1204.13 238.324C1205.84 237.923 1207.46 237.154 1208.88 236.044C1210.36 234.876 1211.55 233.366 1212.33 231.642C1213.1 229.919 1213.46 228.033 1213.35 226.145C1213.22 223.466 1212.19 220.909 1210.44 218.882C1208.68 216.855 1206.3 215.476 1203.66 214.965C1201.31 214.518 1199.2 213.155 1197.75 211.139C1195.5 208.032 1191.51 204.67 1185.25 206.139L1185.12 206.17C1180.49 207.298 1177.45 210.73 1176.33 216.085C1175.8 218.636 1174.47 220.807 1172.58 222.208C1168.1 225.534 1166.52 231.453 1168.75 236.617C1170.27 240.156 1173.42 242.717 1177.17 243.488ZM1170.37 217.247C1170.2 214.818 1169.16 212.275 1167.41 210.091C1163.64 205.373 1158 203.828 1154.54 206.582C1151.1 209.346 1151.33 215.199 1155.1 219.917C1156.85 222.1 1159.08 223.685 1161.42 224.383C1162.89 224.83 1164.3 224.886 1165.55 224.593C1166.44 224.383 1167.27 223.996 1167.98 223.426C1169.7 222.052 1170.55 219.854 1170.37 217.247ZM1175.13 205.921C1175.65 205.801 1176.15 205.628 1176.62 205.363C1180.74 203.205 1181.66 196.844 1178.68 191.191C1175.7 185.538 1169.93 182.717 1165.81 184.878C1162.57 186.58 1161.31 190.886 1162.37 195.381C1162.66 196.617 1163.11 197.855 1163.76 199.063C1166.39 204.063 1171.2 206.844 1175.13 205.921Z" fill="#FFCC37"/>
</g>
<g opacity="0.05" clip-path="url(#clip10_276_4760)">
<path d="M908.292 191.433C907.038 190.233 905.224 189.792 903.195 190.192C901.308 190.572 899.419 191.661 897.883 193.242C896.354 194.836 895.335 196.76 895.022 198.662C894.695 200.706 895.197 202.499 896.447 203.709C896.976 204.214 897.587 204.577 898.276 204.809C899.248 205.137 900.357 205.194 901.554 204.954C903.441 204.574 905.327 203.494 906.856 201.9C908.391 200.319 909.411 198.396 909.714 196.49C910.054 194.44 909.542 192.644 908.292 191.433ZM890.987 188.835C891.345 189.079 891.743 189.27 892.148 189.406C893.475 189.853 895.017 189.762 896.587 189.118C898.516 188.346 900.295 186.813 901.595 184.826C902.895 182.839 903.581 180.6 903.526 178.518C903.472 176.301 902.585 174.514 901.023 173.492C897.953 171.489 893.189 173.28 890.412 177.51C887.601 181.808 887.853 186.788 890.987 188.835ZM863.29 210.616C865.434 212.657 868.378 213.592 871.368 213.188C874.475 212.768 877.514 213.791 879.725 216.001C880.83 217.106 882.149 217.911 883.578 218.391C884.895 218.835 886.307 218.994 887.724 218.839C889.211 218.674 890.637 218.152 891.88 217.318C893.123 216.483 894.146 215.361 894.862 214.047C895.893 212.191 896.27 210.043 895.935 207.947C895.6 205.851 894.571 203.928 893.013 202.486C891.618 201.204 890.768 199.407 890.628 197.443C890.417 194.417 889.134 190.489 884.312 188.866L884.211 188.832C880.624 187.659 877.15 188.7 874.157 191.832C872.74 193.328 870.935 194.232 869.079 194.386C864.681 194.755 861.15 198.077 860.491 202.48C860.04 205.497 861.092 208.535 863.29 210.616ZM869.666 190.129C870.567 188.424 870.928 186.279 870.664 184.082C870.096 179.334 866.942 175.939 863.467 176.348C859.998 176.77 857.715 180.806 858.282 185.553C858.546 187.751 859.386 189.748 860.669 191.195C861.468 192.106 862.395 192.734 863.358 193.058C864.046 193.29 864.763 193.373 865.48 193.287C867.207 193.079 868.701 191.958 869.666 190.129ZM877.595 184.497C877.99 184.63 878.399 184.722 878.831 184.744C882.498 185.008 885.771 181.114 886.127 176.068C886.483 171.023 883.781 166.719 880.104 166.452C877.218 166.248 874.572 168.616 873.406 172.081C873.085 173.033 872.876 174.056 872.806 175.138C872.489 179.598 874.566 183.478 877.595 184.497Z" fill="#FF5B2E"/>
</g>
<g opacity="0.05" clip-path="url(#clip11_276_4760)">
<path d="M437.292 191.433C436.038 190.233 434.224 189.792 432.195 190.192C430.308 190.572 428.419 191.661 426.883 193.242C425.354 194.836 424.335 196.76 424.022 198.662C423.695 200.706 424.197 202.499 425.447 203.709C425.976 204.214 426.587 204.577 427.276 204.809C428.248 205.137 429.357 205.194 430.554 204.954C432.441 204.574 434.327 203.494 435.856 201.9C437.391 200.319 438.411 198.396 438.714 196.49C439.054 194.44 438.542 192.644 437.292 191.433ZM419.987 188.835C420.345 189.079 420.743 189.27 421.148 189.406C422.475 189.853 424.017 189.762 425.587 189.118C427.516 188.346 429.295 186.813 430.595 184.826C431.895 182.839 432.581 180.6 432.526 178.518C432.472 176.301 431.585 174.514 430.023 173.492C426.953 171.489 422.189 173.28 419.412 177.51C416.601 181.808 416.853 186.788 419.987 188.835ZM392.29 210.616C394.434 212.657 397.378 213.592 400.368 213.188C403.475 212.768 406.514 213.791 408.725 216.001C409.83 217.106 411.149 217.911 412.578 218.391C413.895 218.835 415.307 218.994 416.724 218.839C418.211 218.674 419.637 218.152 420.88 217.318C422.123 216.483 423.146 215.361 423.862 214.047C424.893 212.191 425.27 210.043 424.935 207.947C424.6 205.851 423.571 203.928 422.013 202.486C420.618 201.204 419.768 199.407 419.628 197.443C419.417 194.417 418.134 190.489 413.312 188.866L413.211 188.832C409.624 187.659 406.15 188.7 403.157 191.832C401.74 193.328 399.935 194.232 398.079 194.386C393.681 194.755 390.15 198.077 389.491 202.48C389.04 205.497 390.092 208.535 392.29 210.616ZM398.666 190.129C399.567 188.424 399.928 186.279 399.664 184.082C399.096 179.334 395.942 175.939 392.467 176.348C388.998 176.77 386.715 180.806 387.282 185.553C387.546 187.751 388.386 189.748 389.669 191.195C390.468 192.106 391.395 192.734 392.358 193.058C393.046 193.29 393.763 193.373 394.48 193.287C396.207 193.079 397.701 191.958 398.666 190.129ZM406.595 184.497C406.99 184.63 407.399 184.722 407.831 184.744C411.498 185.008 414.771 181.114 415.127 176.068C415.483 171.023 412.781 166.719 409.104 166.452C406.218 166.248 403.572 168.616 402.406 172.081C402.085 173.033 401.876 174.056 401.806 175.138C401.489 179.598 403.566 183.478 406.595 184.497Z" fill="#FF5B2E"/>
</g>
<g opacity="0.04" clip-path="url(#clip12_276_4760)">
<path d="M261.557 357.436C260.218 358.466 259.527 360.147 259.614 362.159C259.703 364.031 260.474 366.009 261.77 367.719C263.08 369.425 264.782 370.689 266.567 371.269C268.486 371.884 270.285 371.664 271.634 370.638C272.198 370.203 272.637 369.668 272.961 369.039C273.419 368.151 273.637 367.093 273.582 365.905C273.493 364.033 272.731 362.06 271.421 360.354C270.125 358.644 268.423 357.381 266.633 356.809C264.71 356.181 262.906 356.41 261.557 357.436ZM256.516 373.71C256.804 373.401 257.046 373.046 257.237 372.676C257.861 371.464 258.001 369.967 257.611 368.362C257.151 366.392 255.937 364.455 254.215 362.912C252.494 361.368 250.439 360.38 248.427 360.127C246.285 359.854 244.435 360.445 243.222 361.799C240.843 364.46 241.868 369.308 245.532 372.602C249.256 375.938 254.086 376.426 256.516 373.71ZM273.416 403.565C275.695 401.801 277.027 399.104 277.077 396.168C277.128 393.115 278.559 390.341 281.01 388.537C282.236 387.635 283.204 386.484 283.877 385.179C284.497 383.977 284.857 382.641 284.916 381.255C284.976 379.799 284.683 378.35 284.062 377.031C283.441 375.712 282.512 374.563 281.352 373.68C279.716 372.417 277.704 371.738 275.638 371.753C273.571 371.768 271.569 372.476 269.952 373.763C268.514 374.919 266.659 375.473 264.749 375.319C261.805 375.078 257.837 375.737 255.567 380.139L255.519 380.232C253.864 383.511 254.356 387.008 256.931 390.349C258.163 391.932 258.768 393.802 258.644 395.611C258.354 399.898 261.033 403.785 265.173 405.064C268.011 405.942 271.09 405.375 273.416 403.565ZM254.632 394.421C253.124 393.304 251.113 392.642 248.959 392.573C244.306 392.423 240.575 394.96 240.458 398.365C240.356 401.766 243.905 404.556 248.558 404.706C250.712 404.775 252.757 404.26 254.338 403.237C255.332 402.602 256.073 401.801 256.526 400.923C256.85 400.294 257.035 399.617 257.058 398.914C257.111 397.221 256.251 395.618 254.632 394.421ZM250.376 385.963C250.562 385.602 250.711 385.222 250.795 384.809C251.587 381.319 248.319 377.597 243.515 376.514C238.712 375.431 234.173 377.4 233.376 380.899C232.756 383.647 234.647 386.542 237.81 388.173C238.68 388.621 239.634 388.972 240.664 389.199C244.911 390.159 248.95 388.729 250.376 385.963Z" fill="#FFCC37"/>
</g>
<g opacity="0.04" clip-path="url(#clip13_276_4760)">
<path d="M1324.75 385.033C1323.15 385.579 1321.95 386.948 1321.39 388.881C1320.87 390.682 1320.97 392.804 1321.64 394.84C1322.34 396.876 1323.54 398.619 1325.04 399.742C1326.66 400.941 1328.44 401.311 1330.05 400.773C1330.72 400.542 1331.31 400.177 1331.82 399.686C1332.53 398.992 1333.08 398.06 1333.41 396.918C1333.93 395.116 1333.84 393.003 1333.15 390.966C1332.47 388.931 1331.27 387.187 1329.75 386.071C1328.13 384.857 1326.35 384.495 1324.75 385.033ZM1314.74 398.824C1315.11 398.624 1315.46 398.365 1315.76 398.076C1316.74 397.13 1317.35 395.757 1317.5 394.111C1317.7 392.098 1317.17 389.874 1316.03 387.859C1314.9 385.844 1313.27 384.248 1311.45 383.362C1309.51 382.415 1307.56 382.381 1305.98 383.272C1302.87 385.028 1302.29 389.948 1304.7 394.245C1307.15 398.601 1311.57 400.615 1314.74 398.824ZM1321.15 432.526C1323.88 431.588 1326 429.462 1327 426.698C1328.02 423.824 1330.27 421.656 1333.17 420.736C1334.62 420.276 1335.91 419.497 1336.97 418.478C1337.94 417.538 1338.71 416.389 1339.21 415.095C1339.74 413.735 1339.92 412.269 1339.76 410.821C1339.6 409.373 1339.08 407.985 1338.27 406.777C1337.13 405.055 1335.44 403.765 1333.48 403.116C1331.52 402.466 1329.39 402.493 1327.45 403.192C1325.72 403.824 1323.78 403.753 1322.02 402.993C1319.31 401.819 1315.34 401.167 1311.78 404.607L1311.7 404.68C1309.08 407.253 1308.42 410.722 1309.79 414.713C1310.45 416.609 1310.42 418.574 1309.72 420.247C1308.07 424.213 1309.35 428.755 1312.86 431.297C1315.27 433.04 1318.37 433.492 1321.15 432.526ZM1306.3 417.831C1305.23 416.289 1303.54 415.015 1301.52 414.258C1297.17 412.62 1292.82 413.824 1291.61 417.011C1290.42 420.199 1292.89 423.981 1297.25 425.619C1299.26 426.376 1301.36 426.545 1303.19 426.085C1304.34 425.803 1305.3 425.283 1306.01 424.596C1306.52 424.105 1306.91 423.523 1307.16 422.865C1307.75 421.279 1307.45 419.485 1306.3 417.831ZM1304.99 408.454C1305.28 408.172 1305.55 407.86 1305.76 407.496C1307.63 404.445 1305.73 399.871 1301.53 397.302C1297.33 394.732 1292.4 395.138 1290.52 398.196C1289.05 400.598 1289.91 403.947 1292.38 406.508C1293.06 407.212 1293.85 407.851 1294.75 408.397C1298.47 410.671 1302.75 410.615 1304.99 408.454Z" fill="#FFCC37"/>
</g>
<g opacity="0.04">
<path d="M937.227 360.012C935.537 359.623 933.754 360.171 932.216 361.552C930.79 362.843 929.725 364.745 929.214 366.887C928.716 369.038 928.825 371.211 929.528 373.004C930.292 374.926 931.64 376.209 933.333 376.609C934.045 376.772 934.755 376.772 935.465 376.619C936.468 376.403 937.449 375.885 938.354 375.067C939.78 373.776 940.848 371.885 941.345 369.734C941.856 367.592 941.748 365.419 941.033 363.628C940.277 361.693 938.919 360.412 937.227 360.012ZM921.04 366.629C921.472 366.656 921.911 366.616 922.329 366.526C923.697 366.231 924.974 365.365 925.993 364.009C927.254 362.36 927.998 360.134 928.099 357.763C928.199 355.392 927.643 353.119 926.532 351.359C925.351 349.483 923.676 348.402 921.812 348.323C918.152 348.173 914.977 352.147 914.755 357.199C914.539 362.327 917.302 366.473 921.04 366.629ZM908.394 399.493C911.278 400.149 914.284 399.446 916.644 397.571C919.098 395.622 922.23 394.946 925.259 395.713C926.773 396.097 928.317 396.114 929.789 395.796C931.147 395.503 932.441 394.918 933.578 394.061C934.771 393.158 935.729 391.981 936.369 390.629C937.01 389.277 937.315 387.791 937.258 386.296C937.193 384.176 936.419 382.138 935.06 380.51C933.7 378.881 931.833 377.756 929.759 377.314C927.905 376.927 926.256 375.819 925.132 374.204C923.404 371.713 920.294 368.997 915.324 370.069L915.219 370.091C911.54 370.918 909.09 373.588 908.12 377.807C907.669 379.817 906.582 381.515 905.066 382.596C901.479 385.162 900.145 389.821 901.83 393.937C902.985 396.758 905.442 398.829 908.394 399.493ZM903.394 378.641C903.296 376.717 902.509 374.69 901.159 372.938C898.244 369.152 893.8 367.849 891.024 369.977C888.262 372.114 888.365 376.747 891.279 380.533C892.63 382.285 894.371 383.57 896.213 384.156C897.365 384.531 898.482 384.595 899.474 384.381C900.184 384.228 900.842 383.934 901.414 383.493C902.791 382.431 903.5 380.705 903.394 378.641ZM907.322 369.751C907.73 369.663 908.128 369.534 908.51 369.331C911.793 367.683 912.613 362.666 910.339 358.152C908.065 353.638 903.545 351.324 900.251 352.974C897.668 354.274 896.607 357.661 897.377 361.232C897.589 362.213 897.932 363.199 898.425 364.164C900.433 368.156 904.2 370.425 907.322 369.751Z" fill="#FFCC37"/>
</g>
<g opacity="0.04">
<path d="M466.227 360.012C464.537 359.623 462.754 360.171 461.216 361.552C459.79 362.843 458.725 364.745 458.214 366.887C457.716 369.038 457.825 371.211 458.528 373.004C459.292 374.926 460.64 376.209 462.333 376.609C463.045 376.772 463.755 376.772 464.465 376.619C465.468 376.403 466.449 375.885 467.354 375.067C468.78 373.776 469.848 371.885 470.345 369.734C470.856 367.592 470.748 365.419 470.033 363.628C469.277 361.693 467.919 360.412 466.227 360.012ZM450.04 366.629C450.472 366.656 450.911 366.616 451.329 366.526C452.697 366.231 453.974 365.365 454.993 364.009C456.254 362.36 456.998 360.134 457.099 357.763C457.199 355.392 456.643 353.119 455.532 351.359C454.351 349.483 452.676 348.402 450.812 348.323C447.152 348.173 443.977 352.147 443.755 357.199C443.539 362.327 446.302 366.473 450.04 366.629ZM437.394 399.493C440.278 400.149 443.284 399.446 445.644 397.571C448.098 395.622 451.23 394.946 454.259 395.713C455.773 396.097 457.317 396.114 458.789 395.796C460.147 395.503 461.441 394.918 462.578 394.061C463.771 393.158 464.729 391.981 465.369 390.629C466.01 389.277 466.315 387.791 466.258 386.296C466.193 384.176 465.419 382.138 464.06 380.51C462.7 378.881 460.833 377.756 458.759 377.314C456.905 376.927 455.256 375.819 454.132 374.204C452.404 371.713 449.294 368.997 444.324 370.069L444.219 370.091C440.54 370.918 438.09 373.588 437.12 377.807C436.669 379.817 435.582 381.515 434.066 382.596C430.479 385.162 429.145 389.821 430.83 393.937C431.985 396.758 434.442 398.829 437.394 399.493ZM432.394 378.641C432.296 376.717 431.509 374.69 430.159 372.938C427.244 369.152 422.8 367.849 420.024 369.977C417.262 372.114 417.365 376.747 420.279 380.533C421.63 382.285 423.371 383.57 425.213 384.156C426.365 384.531 427.482 384.595 428.474 384.381C429.184 384.228 429.842 383.934 430.414 383.493C431.791 382.431 432.5 380.705 432.394 378.641ZM436.322 369.751C436.73 369.663 437.128 369.534 437.51 369.331C440.793 367.683 441.613 362.666 439.339 358.152C437.065 353.638 432.545 351.324 429.251 352.974C426.668 354.274 425.607 357.661 426.377 361.232C426.589 362.213 426.932 363.199 427.425 364.164C429.433 368.156 433.2 370.425 436.322 369.751Z" fill="#FFCC37"/>
</g>
<g opacity="0.03" clip-path="url(#clip14_276_4760)">
<path d="M174.801 157.038C174.922 154.849 173.855 152.746 171.804 151.128C169.889 149.629 167.291 148.712 164.512 148.537C161.726 148.38 159.042 148.983 156.96 150.246C154.73 151.611 153.422 153.566 153.288 155.761C153.238 156.684 153.392 157.568 153.735 158.42C154.22 159.622 155.076 160.732 156.29 161.684C158.205 163.183 160.791 164.105 163.577 164.262C166.356 164.436 169.04 163.834 171.117 162.559C173.364 161.2 174.667 159.233 174.801 157.038ZM163.074 138.299C163.133 138.843 163.278 139.381 163.48 139.882C164.142 141.523 165.495 142.928 167.404 143.905C169.729 145.121 172.662 145.569 175.637 145.183C178.612 144.798 181.324 143.616 183.277 141.852C185.36 139.978 186.346 137.658 186.043 135.32C185.442 130.728 179.808 127.628 173.467 128.44C167.033 129.275 162.462 133.609 163.074 138.299ZM119.413 129.622C119.216 133.356 120.739 136.95 123.583 139.486C126.54 142.122 128.056 145.879 127.752 149.816C127.6 151.785 127.912 153.712 128.624 155.478C129.281 157.106 130.289 158.592 131.601 159.824C132.983 161.116 134.655 162.055 136.477 162.562C138.299 163.069 140.216 163.129 142.066 162.736C144.694 162.199 147.065 160.796 148.801 158.752C150.537 156.708 151.536 154.14 151.64 151.46C151.723 149.068 152.749 146.776 154.519 145.028C157.249 142.339 159.963 137.88 157.558 131.919L157.507 131.794C155.686 127.389 151.832 124.911 146.367 124.612C143.767 124.482 141.417 123.494 139.744 121.839C135.775 117.922 129.685 117.264 124.92 120.25C121.654 122.296 119.604 125.803 119.413 129.622ZM144.311 118.904C146.686 118.368 149.042 116.951 150.933 114.892C155.022 110.446 155.689 104.629 152.44 101.63C149.183 98.649 143.435 99.775 139.346 104.221C137.455 106.28 136.228 108.726 135.895 111.147C135.676 112.662 135.836 114.068 136.316 115.258C136.66 116.109 137.169 116.865 137.84 117.482C139.459 118.969 141.763 119.481 144.311 118.904ZM156.231 121.884C156.428 122.372 156.675 122.84 157.01 123.273C159.769 127.008 166.196 126.948 171.329 123.144C176.463 119.339 178.372 113.21 175.607 109.463C173.432 106.526 168.984 105.932 164.702 107.661C163.525 108.136 162.371 108.776 161.275 109.597C156.735 112.958 154.72 118.14 156.231 121.884Z" fill="#FFCC37"/>
</g>
<g opacity="0.03">
<path d="M1306.99 167.385C1307.81 165.351 1307.47 163.016 1306.05 160.825C1304.72 158.79 1302.55 157.087 1299.98 156.028C1297.39 154.984 1294.66 154.693 1292.28 155.219C1289.73 155.796 1287.86 157.227 1287.03 159.262C1286.69 160.12 1286.55 161.007 1286.6 161.923C1286.67 163.218 1287.13 164.544 1287.97 165.836C1289.3 167.87 1291.45 169.574 1294.04 170.618C1296.62 171.677 1299.35 171.969 1301.73 171.429C1304.29 170.864 1306.16 169.42 1306.99 167.385ZM1301.91 145.871C1301.79 146.405 1301.75 146.962 1301.78 147.501C1301.88 149.267 1302.71 151.032 1304.21 152.571C1306.02 154.47 1308.65 155.836 1311.59 156.427C1314.53 157.019 1317.48 156.771 1319.9 155.728C1322.47 154.623 1324.15 152.743 1324.62 150.431C1325.52 145.89 1321.18 141.144 1314.92 139.875C1308.56 138.598 1302.84 141.234 1301.91 145.871ZM1263.35 123.623C1261.97 127.096 1262.25 130.989 1264.13 134.304C1266.08 137.751 1266.31 141.795 1264.76 145.426C1263.98 147.242 1263.66 149.167 1263.77 151.068C1263.86 152.821 1264.34 154.552 1265.19 156.14C1266.08 157.808 1267.36 159.235 1268.92 160.3C1270.49 161.366 1272.28 162.038 1274.16 162.261C1276.82 162.597 1279.52 162.03 1281.82 160.652C1284.12 159.274 1285.89 157.164 1286.85 154.66C1287.7 152.421 1289.41 150.58 1291.64 149.494C1295.09 147.825 1299.1 144.474 1298.73 138.057L1298.73 137.922C1298.42 133.166 1295.56 129.581 1290.49 127.541C1288.07 126.583 1286.16 124.892 1285.11 122.787C1282.61 117.802 1277.05 115.222 1271.58 116.518C1267.83 117.406 1264.76 120.068 1263.35 123.623ZM1290.37 121.475C1292.8 121.731 1295.48 121.146 1297.93 119.804C1303.23 116.908 1305.73 111.614 1303.62 107.73C1301.5 103.86 1295.69 103.079 1290.39 105.975C1287.94 107.318 1285.99 109.24 1284.9 111.425C1284.2 112.789 1283.9 114.172 1283.97 115.453C1284.03 116.37 1284.27 117.249 1284.7 118.049C1285.76 119.978 1287.77 121.203 1290.37 121.475ZM1300.7 128.127C1300.73 128.653 1300.82 129.176 1300.99 129.693C1302.41 134.117 1308.51 136.126 1314.6 134.173C1320.68 132.22 1324.46 127.029 1323.04 122.592C1321.93 119.112 1317.91 117.121 1313.3 117.381C1312.03 117.453 1310.73 117.688 1309.43 118.113C1304.05 119.837 1300.48 124.096 1300.7 128.127Z" fill="#FFCC37"/>
</g>
<g opacity="0.03" clip-path="url(#clip15_276_4760)">
<path d="M1012.35 191.289C1013.34 190.567 1013.86 189.365 1013.83 187.912C1013.8 186.56 1013.28 185.12 1012.37 183.865C1011.45 182.612 1010.24 181.672 1008.97 181.224C1007.59 180.749 1006.29 180.878 1005.3 181.596C1004.89 181.901 1004.56 182.279 1004.32 182.728C1003.97 183.361 1003.8 184.121 1003.82 184.979C1003.85 186.331 1004.37 187.768 1005.28 189.02C1006.19 190.275 1007.4 191.215 1008.68 191.657C1010.06 192.142 1011.36 192.007 1012.35 191.289ZM1016.26 179.629C1016.05 179.847 1015.87 180.099 1015.72 180.363C1015.25 181.227 1015.13 182.305 1015.38 183.47C1015.68 184.899 1016.52 186.317 1017.74 187.458C1018.96 188.6 1020.42 189.348 1021.87 189.563C1023.41 189.796 1024.76 189.399 1025.66 188.443C1027.42 186.562 1026.76 183.047 1024.17 180.61C1021.53 178.141 1018.06 177.709 1016.26 179.629ZM1004.56 157.807C1002.88 159.042 1001.88 160.966 1001.79 163.084C1001.71 165.286 1000.63 167.265 998.829 168.526C997.93 169.156 997.212 169.971 996.706 170.901C996.238 171.759 995.956 172.717 995.891 173.716C995.824 174.766 996.011 175.816 996.437 176.778C996.863 177.74 997.515 178.584 998.338 179.24C999.497 180.179 1000.94 180.702 1002.43 180.725C1003.92 180.749 1005.38 180.271 1006.56 179.368C1007.62 178.559 1008.97 178.189 1010.35 178.332C1012.47 178.554 1015.34 178.145 1017.05 175.005L1017.09 174.939C1018.33 172.6 1018.04 170.069 1016.23 167.616C1015.37 166.453 1014.97 165.094 1015.09 163.791C1015.37 160.702 1013.5 157.853 1010.53 156.861C1008.5 156.181 1006.27 156.54 1004.56 157.807ZM1017.96 164.715C1019.03 165.546 1020.47 166.057 1022.02 166.142C1025.38 166.327 1028.11 164.558 1028.25 162.103C1028.38 159.651 1025.87 157.579 1022.51 157.394C1020.96 157.309 1019.48 157.646 1018.32 158.359C1017.59 158.8 1017.04 159.366 1016.7 159.992C1016.46 160.441 1016.31 160.926 1016.28 161.433C1016.22 162.654 1016.81 163.824 1017.96 164.715ZM1020.89 170.888C1020.75 171.146 1020.64 171.417 1020.57 171.714C1019.94 174.219 1022.24 176.959 1025.69 177.82C1029.13 178.68 1032.44 177.335 1033.08 174.823C1033.57 172.85 1032.25 170.73 1030 169.501C1029.38 169.164 1028.69 168.894 1027.95 168.714C1024.9 167.951 1021.97 168.916 1020.89 170.888Z" fill="#FF5B2E"/>
</g>
<g opacity="0.03" clip-path="url(#clip16_276_4760)">
<path d="M541.353 191.289C542.336 190.567 542.863 189.365 542.833 187.912C542.8 186.56 542.276 185.12 541.369 183.865C540.452 182.612 539.245 181.672 537.966 181.224C536.592 180.749 535.29 180.878 534.3 181.596C533.886 181.901 533.56 182.279 533.316 182.728C532.971 183.361 532.796 184.121 532.816 184.979C532.849 186.331 533.367 187.768 534.284 189.02C535.191 190.275 536.398 191.215 537.68 191.657C539.058 192.142 540.363 192.007 541.353 191.289ZM545.259 179.629C545.046 179.847 544.866 180.099 544.722 180.363C544.251 181.227 544.126 182.305 544.381 183.47C544.68 184.899 545.524 186.317 546.741 187.458C547.958 188.6 549.424 189.348 550.872 189.563C552.413 189.796 553.758 189.399 554.655 188.443C556.416 186.562 555.756 183.047 553.166 180.61C550.534 178.141 547.057 177.709 545.259 179.629ZM533.557 157.807C531.884 159.042 530.878 160.966 530.794 163.084C530.706 165.286 529.628 167.265 527.829 168.526C526.93 169.156 526.212 169.971 525.706 170.901C525.238 171.759 524.956 172.717 524.891 173.716C524.824 174.766 525.011 175.816 525.437 176.778C525.863 177.74 526.515 178.584 527.338 179.24C528.497 180.179 529.938 180.702 531.429 180.725C532.921 180.749 534.377 180.271 535.565 179.368C536.622 178.559 537.969 178.189 539.345 178.332C541.465 178.554 544.34 178.145 546.05 175.005L546.086 174.939C547.335 172.6 547.037 170.069 545.235 167.616C544.371 166.453 543.965 165.094 544.085 163.791C544.365 160.702 542.496 157.853 539.53 156.861C537.496 156.181 535.266 156.54 533.557 157.807ZM546.96 164.715C548.03 165.546 549.471 166.057 551.024 166.142C554.378 166.327 557.113 164.558 557.253 162.103C557.383 159.651 554.868 157.579 551.513 157.394C549.96 157.309 548.476 157.646 547.318 158.359C546.59 158.8 546.042 159.366 545.701 159.992C545.457 160.441 545.312 160.926 545.284 161.433C545.218 162.654 545.812 163.824 546.96 164.715ZM549.892 170.888C549.752 171.146 549.638 171.417 549.571 171.714C548.941 174.219 551.238 176.959 554.686 177.82C558.135 178.68 561.442 177.335 562.075 174.823C562.568 172.85 561.251 170.73 558.996 169.501C558.376 169.164 557.693 168.894 556.953 168.714C553.904 167.951 550.966 168.916 549.892 170.888Z" fill="#FF5B2E"/>
</g>
<defs>
<clipPath id="clip0_276_4760">
<rect width="64" height="64" fill="white" transform="translate(80.1855 353) rotate(40.055)"/>
</clipPath>
<clipPath id="clip1_276_4760">
<rect width="64" height="64" fill="white" transform="translate(1196.74 316) rotate(58.8002)"/>
</clipPath>
<clipPath id="clip2_276_4760">
<rect width="64" height="64" fill="white" transform="translate(725.743 316) rotate(58.8002)"/>
</clipPath>
<clipPath id="clip3_276_4760">
<rect width="64" height="64" fill="white" transform="translate(1123.74) rotate(58.8002)"/>
</clipPath>
<clipPath id="clip4_276_4760">
<rect width="64" height="64" fill="white" transform="translate(204.564 213) rotate(15)"/>
</clipPath>
<clipPath id="clip5_276_4760">
<rect width="64" height="64" fill="white" transform="translate(1317.19 229.943) rotate(33.7451)"/>
</clipPath>
<clipPath id="clip6_276_4760">
<rect width="50.6596" height="50.6596" fill="white" transform="translate(1040.12 289) rotate(65.5581)"/>
</clipPath>
<clipPath id="clip7_276_4760">
<rect width="50.6596" height="50.6596" fill="white" transform="translate(569.119 289) rotate(65.5581)"/>
</clipPath>
<clipPath id="clip8_276_4760">
<rect width="81.0171" height="81.0171" fill="white" transform="translate(18.7803 224.377) rotate(-31.958)"/>
</clipPath>
<clipPath id="clip9_276_4760">
<rect width="81.0171" height="81.0171" fill="white" transform="translate(1137.61 181.014) rotate(-13.2128)"/>
</clipPath>
<clipPath id="clip10_276_4760">
<rect width="64.1296" height="64.1296" fill="white" transform="translate(862.746 152.084) rotate(18.6002)"/>
</clipPath>
<clipPath id="clip11_276_4760">
<rect width="64.1296" height="64.1296" fill="white" transform="translate(391.746 152.084) rotate(18.6002)"/>
</clipPath>
<clipPath id="clip12_276_4760">
<rect width="62.4376" height="62.4376" fill="white" transform="translate(217 395.498) rotate(-62.7294)"/>
</clipPath>
<clipPath id="clip13_276_4760">
<rect width="62.4376" height="62.4376" fill="white" transform="translate(1270.32 406.757) rotate(-43.9843)"/>
</clipPath>
<clipPath id="clip14_276_4760">
<rect width="81.0171" height="81.0171" fill="white" transform="translate(175.129 81) rotate(68.0224)"/>
</clipPath>
<clipPath id="clip15_276_4760">
<rect width="45.0653" height="45.0653" fill="white" transform="translate(1045.13 164.559) rotate(118.581)"/>
</clipPath>
<clipPath id="clip16_276_4760">
<rect width="45.0653" height="45.0653" fill="white" transform="translate(574.133 164.559) rotate(118.581)"/>
</clipPath>
</defs>
</svg>
